<mxfile host="65bd71144e">
    <diagram id="TjL9AtfrokvbZYrgO0HU" name="Page-1">
        <mxGraphModel dx="720" dy="516" grid="1" gridSize="10" guides="1" tooltips="1" connect="1" arrows="1" fold="1" page="1" pageScale="1" pageWidth="850" pageHeight="1100" math="0" shadow="0">
            <root>
                <mxCell id="0"/>
                <mxCell id="1" parent="0"/>
                <mxCell id="136" value="" style="rounded=0;whiteSpace=wrap;html=1;" vertex="1" parent="1">
                    <mxGeometry width="1700" height="1660" as="geometry"/>
                </mxCell>
                <mxCell id="48" value="" style="rounded=0;whiteSpace=wrap;html=1;strokeColor=#00CC00;" vertex="1" parent="1">
                    <mxGeometry x="30" y="640" width="1270" height="400" as="geometry"/>
                </mxCell>
                <mxCell id="102" value="" style="rounded=0;whiteSpace=wrap;html=1;" vertex="1" parent="1">
                    <mxGeometry x="680" y="670" width="585" height="340" as="geometry"/>
                </mxCell>
                <mxCell id="122" value="" style="rounded=1;whiteSpace=wrap;html=1;fillColor=none;dashed=1;dashPattern=1 2;strokeColor=light-dark(#FF9933,#EDEDED);" vertex="1" parent="1">
                    <mxGeometry x="694.75" y="700" width="175.25" height="280" as="geometry"/>
                </mxCell>
                <mxCell id="112" value="" style="rounded=1;whiteSpace=wrap;html=1;fillColor=none;dashed=1;dashPattern=1 2;strokeColor=light-dark(#FF9933,#EDEDED);" vertex="1" parent="1">
                    <mxGeometry x="900" y="700" width="165.25" height="290" as="geometry"/>
                </mxCell>
                <mxCell id="106" value="" style="rounded=1;whiteSpace=wrap;html=1;fillColor=none;dashed=1;dashPattern=1 2;strokeColor=light-dark(#FF9933,#EDEDED);" vertex="1" parent="1">
                    <mxGeometry x="1090" y="700" width="160" height="290" as="geometry"/>
                </mxCell>
                <mxCell id="93" value="" style="rounded=0;whiteSpace=wrap;html=1;" vertex="1" parent="1">
                    <mxGeometry x="55" y="670" width="585" height="340" as="geometry"/>
                </mxCell>
                <mxCell id="98" value="" style="rounded=1;whiteSpace=wrap;html=1;fillColor=none;dashed=1;dashPattern=1 2;strokeColor=light-dark(#FF9933,#EDEDED);" vertex="1" parent="1">
                    <mxGeometry x="90" y="710" width="500" height="250" as="geometry"/>
                </mxCell>
                <mxCell id="100" value="" style="rounded=1;whiteSpace=wrap;html=1;fillColor=none;dashed=1;dashPattern=1 2;strokeColor=light-dark(#660066,#EDEDED);" vertex="1" parent="1">
                    <mxGeometry x="90" y="750" width="500" height="250" as="geometry"/>
                </mxCell>
                <mxCell id="84" value="" style="edgeStyle=none;html=1;" edge="1" parent="1">
                    <mxGeometry relative="1" as="geometry">
                        <mxPoint x="440" y="1320" as="sourcePoint"/>
                        <mxPoint x="510" y="1320" as="targetPoint"/>
                    </mxGeometry>
                </mxCell>
                <mxCell id="53" value="" style="rounded=0;whiteSpace=wrap;html=1;strokeColor=#00CC00;" vertex="1" parent="1">
                    <mxGeometry x="10" y="1260" width="430" height="300" as="geometry"/>
                </mxCell>
                <mxCell id="63" value="" style="rounded=1;whiteSpace=wrap;html=1;fillColor=none;dashed=1;dashPattern=1 2;strokeColor=light-dark(#FF9933,#EDEDED);" vertex="1" parent="1">
                    <mxGeometry x="20" y="1290" width="390" height="230" as="geometry"/>
                </mxCell>
                <mxCell id="35" value="" style="rounded=0;whiteSpace=wrap;html=1;strokeColor=#00CC00;" vertex="1" parent="1">
                    <mxGeometry x="1310" y="60" width="330" height="300" as="geometry"/>
                </mxCell>
                <mxCell id="42" value="" style="rounded=1;whiteSpace=wrap;html=1;fillColor=none;dashed=1;dashPattern=1 2;strokeColor=light-dark(#FF9933,#EDEDED);" vertex="1" parent="1">
                    <mxGeometry x="1330" y="95" width="290" height="235" as="geometry"/>
                </mxCell>
                <mxCell id="90" value="" style="edgeStyle=none;html=1;entryX=0.512;entryY=0;entryDx=0;entryDy=0;entryPerimeter=0;" edge="1" parent="1" source="2" target="48">
                    <mxGeometry relative="1" as="geometry">
                        <mxPoint x="680" y="630" as="targetPoint"/>
                    </mxGeometry>
                </mxCell>
                <mxCell id="2" value="" style="rounded=0;whiteSpace=wrap;html=1;" vertex="1" parent="1">
                    <mxGeometry x="470" y="60" width="420" height="530" as="geometry"/>
                </mxCell>
                <mxCell id="5" value="" style="edgeStyle=none;html=1;" edge="1" parent="1" source="3" target="4">
                    <mxGeometry relative="1" as="geometry"/>
                </mxCell>
                <mxCell id="7" value="" style="edgeStyle=none;html=1;exitX=0.5;exitY=1;exitDx=0;exitDy=0;entryX=-0.001;entryY=0.549;entryDx=0;entryDy=0;entryPerimeter=0;" edge="1" parent="1" source="3" target="6">
                    <mxGeometry relative="1" as="geometry">
                        <Array as="points">
                            <mxPoint x="110" y="200"/>
                        </Array>
                    </mxGeometry>
                </mxCell>
                <mxCell id="3" value="Programmstart" style="rounded=0;whiteSpace=wrap;html=1;" vertex="1" parent="1">
                    <mxGeometry x="40" y="40" width="140" height="90" as="geometry"/>
                </mxCell>
                <mxCell id="4" value="&lt;font style=&quot;color: rgb(102, 0, 102);&quot;&gt;Config&lt;/font&gt;" style="rounded=0;whiteSpace=wrap;html=1;strokeColor=#660066;" vertex="1" parent="1">
                    <mxGeometry x="260" y="40" width="140" height="90" as="geometry"/>
                </mxCell>
                <mxCell id="6" value="&lt;font style=&quot;color: rgb(0, 204, 0);&quot;&gt;Blitter&lt;/font&gt;" style="rounded=0;whiteSpace=wrap;html=1;strokeColor=#00CC00;" vertex="1" parent="1">
                    <mxGeometry x="260" y="150" width="140" height="90" as="geometry"/>
                </mxCell>
                <mxCell id="8" value="" style="rounded=0;whiteSpace=wrap;html=1;" vertex="1" parent="1">
                    <mxGeometry x="930" y="60" width="350" height="300" as="geometry"/>
                </mxCell>
                <mxCell id="9" value="Buffer" style="text;html=1;align=center;verticalAlign=middle;whiteSpace=wrap;rounded=0;" vertex="1" parent="1">
                    <mxGeometry x="470" y="60" width="60" height="30" as="geometry"/>
                </mxCell>
                <mxCell id="10" value="Shader" style="text;html=1;align=center;verticalAlign=middle;whiteSpace=wrap;rounded=0;" vertex="1" parent="1">
                    <mxGeometry x="930" y="60" width="60" height="30" as="geometry"/>
                </mxCell>
                <mxCell id="16" value="" style="edgeStyle=none;html=1;entryX=0.205;entryY=-0.001;entryDx=0;entryDy=0;entryPerimeter=0;" edge="1" parent="1" source="11" target="14">
                    <mxGeometry relative="1" as="geometry"/>
                </mxCell>
                <mxCell id="11" value="&lt;font style=&quot;color: rgb(0, 0, 255);&quot;&gt;Vertex Shader&lt;/font&gt;" style="rounded=0;whiteSpace=wrap;html=1;dashed=1;dashPattern=1 2;strokeColor=#0000FF;" vertex="1" parent="1">
                    <mxGeometry x="960" y="110" width="120" height="60" as="geometry"/>
                </mxCell>
                <mxCell id="17" value="" style="edgeStyle=none;html=1;entryX=0.756;entryY=0.005;entryDx=0;entryDy=0;entryPerimeter=0;" edge="1" parent="1" source="12" target="14">
                    <mxGeometry relative="1" as="geometry"/>
                </mxCell>
                <mxCell id="12" value="&lt;font style=&quot;color: rgb(0, 0, 255);&quot;&gt;Fragment Shader&lt;/font&gt;" style="rounded=0;whiteSpace=wrap;html=1;dashed=1;dashPattern=1 2;strokeColor=#0000FF;" vertex="1" parent="1">
                    <mxGeometry x="1120" y="110" width="120" height="60" as="geometry"/>
                </mxCell>
                <mxCell id="14" value="Shader Pipeline" style="rounded=0;whiteSpace=wrap;html=1;" vertex="1" parent="1">
                    <mxGeometry x="960" y="190" width="290" height="150" as="geometry"/>
                </mxCell>
                <mxCell id="19" value="" style="rounded=0;whiteSpace=wrap;html=1;" vertex="1" parent="1">
                    <mxGeometry x="650" y="90" width="220" height="480" as="geometry"/>
                </mxCell>
                <mxCell id="20" value="" style="rounded=0;whiteSpace=wrap;html=1;" vertex="1" parent="1">
                    <mxGeometry x="490" y="90" width="140" height="480" as="geometry"/>
                </mxCell>
                <mxCell id="23" value="Vertex Array" style="rounded=0;whiteSpace=wrap;html=1;" vertex="1" parent="1">
                    <mxGeometry x="500" y="240" width="120" height="60" as="geometry"/>
                </mxCell>
                <mxCell id="24" value="Vertex Buffer" style="rounded=0;whiteSpace=wrap;html=1;" vertex="1" parent="1">
                    <mxGeometry x="500" y="320" width="120" height="60" as="geometry"/>
                </mxCell>
                <mxCell id="33" value="" style="edgeStyle=none;html=1;strokeColor=#0000FF;dashed=1;dashPattern=1 2;" edge="1" parent="1" source="25" target="27">
                    <mxGeometry relative="1" as="geometry"/>
                </mxCell>
                <mxCell id="25" value="&lt;font style=&quot;color: rgb(0, 0, 255);&quot;&gt;Texture Data&lt;/font&gt;" style="rounded=0;whiteSpace=wrap;html=1;dashed=1;dashPattern=1 2;strokeColor=#0000FF;" vertex="1" parent="1">
                    <mxGeometry x="715" y="140" width="90" height="60" as="geometry"/>
                </mxCell>
                <mxCell id="27" value="Texture" style="rounded=0;whiteSpace=wrap;html=1;" vertex="1" parent="1">
                    <mxGeometry x="700" y="240" width="120" height="60" as="geometry"/>
                </mxCell>
                <mxCell id="28" value="Geometry Buffer" style="text;html=1;align=center;verticalAlign=middle;whiteSpace=wrap;rounded=0;" vertex="1" parent="1">
                    <mxGeometry x="500" y="90" width="90" height="30" as="geometry"/>
                </mxCell>
                <mxCell id="29" value="Pixel Buffer" style="text;html=1;align=center;verticalAlign=middle;whiteSpace=wrap;rounded=0;" vertex="1" parent="1">
                    <mxGeometry x="640" y="90" width="100" height="30" as="geometry"/>
                </mxCell>
                <mxCell id="30" value="Font" style="rounded=0;whiteSpace=wrap;html=1;" vertex="1" parent="1">
                    <mxGeometry x="700" y="320" width="120" height="60" as="geometry"/>
                </mxCell>
                <mxCell id="31" value="GPU Memory" style="rounded=0;whiteSpace=wrap;html=1;" vertex="1" parent="1">
                    <mxGeometry x="700" y="400" width="120" height="60" as="geometry"/>
                </mxCell>
                <mxCell id="34" value="Render Target" style="rounded=0;whiteSpace=wrap;html=1;" vertex="1" parent="1">
                    <mxGeometry x="700" y="480" width="120" height="60" as="geometry"/>
                </mxCell>
                <mxCell id="36" value="&lt;font style=&quot;color: rgb(0, 204, 0);&quot;&gt;Input Handler&lt;/font&gt;" style="text;html=1;align=center;verticalAlign=middle;whiteSpace=wrap;rounded=0;" vertex="1" parent="1">
                    <mxGeometry x="1310" y="60" width="90" height="30" as="geometry"/>
                </mxCell>
                <mxCell id="38" value="Mouse" style="rounded=0;whiteSpace=wrap;html=1;" vertex="1" parent="1">
                    <mxGeometry x="1350" y="134" width="120" height="176" as="geometry"/>
                </mxCell>
                <mxCell id="39" value="Keyboard" style="rounded=0;whiteSpace=wrap;html=1;" vertex="1" parent="1">
                    <mxGeometry x="1480" y="134" width="120" height="176" as="geometry"/>
                </mxCell>
                <mxCell id="43" value="&lt;font style=&quot;color: rgb(255, 153, 51);&quot;&gt;Input Reader&lt;/font&gt;" style="text;html=1;align=center;verticalAlign=middle;whiteSpace=wrap;rounded=0;" vertex="1" parent="1">
                    <mxGeometry x="1350" y="100" width="80" height="30" as="geometry"/>
                </mxCell>
                <mxCell id="92" value="" style="edgeStyle=none;html=1;" edge="1" parent="1" target="11">
                    <mxGeometry relative="1" as="geometry">
                        <mxPoint x="430" y="260" as="sourcePoint"/>
                        <Array as="points">
                            <mxPoint x="430" y="20"/>
                            <mxPoint x="1020" y="20"/>
                        </Array>
                    </mxGeometry>
                </mxCell>
                <mxCell id="44" value="" style="rounded=0;whiteSpace=wrap;html=1;strokeColor=#660066;" vertex="1" parent="1">
                    <mxGeometry x="70" y="260" width="370" height="270" as="geometry"/>
                </mxCell>
                <mxCell id="45" value="3D Camera Projection" style="rounded=0;whiteSpace=wrap;html=1;" vertex="1" parent="1">
                    <mxGeometry x="287.5" y="320" width="120" height="155" as="geometry"/>
                </mxCell>
                <mxCell id="46" value="2D Coordinate System" style="rounded=0;whiteSpace=wrap;html=1;" vertex="1" parent="1">
                    <mxGeometry x="120" y="320" width="120" height="155" as="geometry"/>
                </mxCell>
                <mxCell id="47" value="&lt;font style=&quot;color: rgb(102, 0, 102);&quot;&gt;Projektion&lt;/font&gt;" style="text;html=1;align=center;verticalAlign=middle;whiteSpace=wrap;rounded=0;" vertex="1" parent="1">
                    <mxGeometry x="90" y="270" width="60" height="30" as="geometry"/>
                </mxCell>
                <mxCell id="50" value="Websocket" style="rounded=0;whiteSpace=wrap;html=1;" vertex="1" parent="1">
                    <mxGeometry x="1450" y="640" width="200" height="400" as="geometry"/>
                </mxCell>
                <mxCell id="51" value="" style="endArrow=classic;html=1;" edge="1" parent="1">
                    <mxGeometry width="50" height="50" relative="1" as="geometry">
                        <mxPoint x="1650" y="839.6" as="sourcePoint"/>
                        <mxPoint x="1690" y="839.6" as="targetPoint"/>
                    </mxGeometry>
                </mxCell>
                <mxCell id="52" value="Renderer" style="text;html=1;align=center;verticalAlign=middle;whiteSpace=wrap;rounded=0;" vertex="1" parent="1">
                    <mxGeometry x="40" y="640" width="60" height="30" as="geometry"/>
                </mxCell>
                <mxCell id="54" value="UI" style="text;html=1;align=center;verticalAlign=middle;whiteSpace=wrap;rounded=0;" vertex="1" parent="1">
                    <mxGeometry x="10" y="1260" width="60" height="30" as="geometry"/>
                </mxCell>
                <mxCell id="55" value="" style="rounded=0;whiteSpace=wrap;html=1;strokeColor=#00CC00;" vertex="1" parent="1">
                    <mxGeometry x="850" y="1260" width="430" height="300" as="geometry"/>
                </mxCell>
                <mxCell id="56" value="Wheel Script System" style="text;html=1;align=center;verticalAlign=middle;whiteSpace=wrap;rounded=0;" vertex="1" parent="1">
                    <mxGeometry x="850" y="1260" width="140" height="30" as="geometry"/>
                </mxCell>
                <mxCell id="58" value="Button" style="rounded=0;whiteSpace=wrap;html=1;" vertex="1" parent="1">
                    <mxGeometry x="45" y="1330" width="120" height="60" as="geometry"/>
                </mxCell>
                <mxCell id="59" value="Text Field" style="rounded=0;whiteSpace=wrap;html=1;" vertex="1" parent="1">
                    <mxGeometry x="250" y="1330" width="120" height="60" as="geometry"/>
                </mxCell>
                <mxCell id="60" value="Checkbox" style="rounded=0;whiteSpace=wrap;html=1;" vertex="1" parent="1">
                    <mxGeometry x="45" y="1425" width="120" height="60" as="geometry"/>
                </mxCell>
                <mxCell id="61" value="Radio Button" style="rounded=0;whiteSpace=wrap;html=1;" vertex="1" parent="1">
                    <mxGeometry x="250" y="1425" width="120" height="60" as="geometry"/>
                </mxCell>
                <mxCell id="65" value="&lt;font style=&quot;color: rgb(255, 153, 51);&quot;&gt;Intersection &amp;amp; State Update&lt;/font&gt;" style="text;html=1;align=center;verticalAlign=middle;whiteSpace=wrap;rounded=0;" vertex="1" parent="1">
                    <mxGeometry x="45" y="1300" width="150" height="30" as="geometry"/>
                </mxCell>
                <mxCell id="66" value="" style="rounded=0;whiteSpace=wrap;html=1;" vertex="1" parent="1">
                    <mxGeometry x="510" y="1260" width="290" height="300" as="geometry"/>
                </mxCell>
                <mxCell id="67" value="Script" style="text;html=1;align=center;verticalAlign=middle;whiteSpace=wrap;rounded=0;" vertex="1" parent="1">
                    <mxGeometry x="510" y="1260" width="70" height="30" as="geometry"/>
                </mxCell>
                <mxCell id="82" value="" style="edgeStyle=none;html=1;entryX=-0.002;entryY=0.144;entryDx=0;entryDy=0;entryPerimeter=0;" edge="1" parent="1" source="68" target="72">
                    <mxGeometry relative="1" as="geometry"/>
                </mxCell>
                <mxCell id="68" value="Construction" style="rounded=0;whiteSpace=wrap;html=1;" vertex="1" parent="1">
                    <mxGeometry x="530" y="1310" width="120" height="60" as="geometry"/>
                </mxCell>
                <mxCell id="81" value="" style="edgeStyle=none;html=1;entryX=0.5;entryY=0.769;entryDx=0;entryDy=0;entryPerimeter=0;" edge="1" parent="1" source="69" target="79">
                    <mxGeometry relative="1" as="geometry">
                        <Array as="points">
                            <mxPoint x="480" y="1410"/>
                            <mxPoint x="480" y="1600"/>
                            <mxPoint x="930" y="1600"/>
                        </Array>
                    </mxGeometry>
                </mxCell>
                <mxCell id="69" value="Update" style="rounded=0;whiteSpace=wrap;html=1;" vertex="1" parent="1">
                    <mxGeometry x="530" y="1380" width="120" height="60" as="geometry"/>
                </mxCell>
                <mxCell id="83" value="" style="edgeStyle=none;html=1;" edge="1" parent="1" source="70" target="69">
                    <mxGeometry relative="1" as="geometry"/>
                </mxCell>
                <mxCell id="70" value="Component" style="rounded=0;whiteSpace=wrap;html=1;" vertex="1" parent="1">
                    <mxGeometry x="530" y="1460" width="120" height="60" as="geometry"/>
                </mxCell>
                <mxCell id="72" value="Data" style="rounded=0;whiteSpace=wrap;html=1;" vertex="1" parent="1">
                    <mxGeometry x="680" y="1310" width="110" height="230" as="geometry"/>
                </mxCell>
                <mxCell id="73" value="Component" style="rounded=0;whiteSpace=wrap;html=1;" vertex="1" parent="1">
                    <mxGeometry x="540" y="1470" width="120" height="60" as="geometry"/>
                </mxCell>
                <mxCell id="74" value="Component" style="rounded=0;whiteSpace=wrap;html=1;" vertex="1" parent="1">
                    <mxGeometry x="550" y="1480" width="120" height="60" as="geometry"/>
                </mxCell>
                <mxCell id="75" value="Game Data" style="rounded=0;whiteSpace=wrap;html=1;" vertex="1" parent="1">
                    <mxGeometry x="870" y="1310" width="120" height="60" as="geometry"/>
                </mxCell>
                <mxCell id="77" value="" style="edgeStyle=none;html=1;" edge="1" parent="1" source="76" target="75">
                    <mxGeometry relative="1" as="geometry"/>
                </mxCell>
                <mxCell id="76" value="Update Routine Pointers" style="rounded=0;whiteSpace=wrap;html=1;" vertex="1" parent="1">
                    <mxGeometry x="870" y="1460" width="120" height="60" as="geometry"/>
                </mxCell>
                <mxCell id="79" value="" style="rounded=1;whiteSpace=wrap;html=1;fillColor=none;dashed=1;dashPattern=1 2;strokeColor=light-dark(#FF9933,#EDEDED);" vertex="1" parent="1">
                    <mxGeometry x="860.5" y="1420" width="139" height="130" as="geometry"/>
                </mxCell>
                <mxCell id="80" value="&lt;font style=&quot;color: rgb(255, 153, 51);&quot;&gt;Execution&lt;/font&gt;" style="text;html=1;align=center;verticalAlign=middle;whiteSpace=wrap;rounded=0;" vertex="1" parent="1">
                    <mxGeometry x="870" y="1425" width="60" height="30" as="geometry"/>
                </mxCell>
                <mxCell id="85" value="" style="endArrow=classic;html=1;exitX=0.176;exitY=1.002;exitDx=0;exitDy=0;exitPerimeter=0;entryX=0.5;entryY=0;entryDx=0;entryDy=0;" edge="1" parent="1">
                    <mxGeometry width="50" height="50" relative="1" as="geometry">
                        <mxPoint x="1363.08" y="360.6" as="sourcePoint"/>
                        <mxPoint x="649.9999999999999" y="1260" as="targetPoint"/>
                        <Array as="points">
                            <mxPoint x="1365" y="1200"/>
                            <mxPoint x="650" y="1200"/>
                        </Array>
                    </mxGeometry>
                </mxCell>
                <mxCell id="86" value="" style="endArrow=classic;html=1;entryX=0.586;entryY=0;entryDx=0;entryDy=0;entryPerimeter=0;exitX=0;exitY=0.5;exitDx=0;exitDy=0;" edge="1" parent="1" source="50">
                    <mxGeometry width="50" height="50" relative="1" as="geometry">
                        <mxPoint x="1439.9999999999998" y="840.0000000000001" as="sourcePoint"/>
                        <mxPoint x="669.9399999999998" y="1260" as="targetPoint"/>
                        <Array as="points">
                            <mxPoint x="1390" y="840"/>
                            <mxPoint x="1390" y="1220"/>
                            <mxPoint x="670" y="1220"/>
                        </Array>
                    </mxGeometry>
                </mxCell>
                <mxCell id="89" value="" style="edgeStyle=none;html=1;entryX=0.395;entryY=-0.004;entryDx=0;entryDy=0;entryPerimeter=0;exitX=0.468;exitY=1;exitDx=0;exitDy=0;exitPerimeter=0;" edge="1" parent="1">
                    <mxGeometry relative="1" as="geometry">
                        <mxPoint x="628.3599999999999" y="1040" as="sourcePoint"/>
                        <mxPoint x="628.55" y="1258.8" as="targetPoint"/>
                        <Array as="points"/>
                    </mxGeometry>
                </mxCell>
                <mxCell id="91" value="" style="edgeStyle=none;html=1;entryX=0.858;entryY=0;entryDx=0;entryDy=0;entryPerimeter=0;" edge="1" parent="1" target="48">
                    <mxGeometry relative="1" as="geometry">
                        <mxPoint x="1120" y="360" as="sourcePoint"/>
                        <mxPoint x="681" y="650" as="targetPoint"/>
                    </mxGeometry>
                </mxCell>
                <mxCell id="94" value="Text" style="rounded=0;whiteSpace=wrap;html=1;" vertex="1" parent="1">
                    <mxGeometry x="430" y="770" width="120" height="170" as="geometry"/>
                </mxCell>
                <mxCell id="95" value="Sprite" style="rounded=0;whiteSpace=wrap;html=1;" vertex="1" parent="1">
                    <mxGeometry x="130" y="770" width="120" height="170" as="geometry"/>
                </mxCell>
                <mxCell id="96" value="Render Buffer" style="rounded=0;whiteSpace=wrap;html=1;" vertex="1" parent="1">
                    <mxGeometry x="280" y="770" width="120" height="170" as="geometry"/>
                </mxCell>
                <mxCell id="97" value="&lt;span style=&quot;color: rgb(0, 0, 0);&quot;&gt;2D Component&lt;/span&gt;" style="text;html=1;align=center;verticalAlign=middle;whiteSpace=wrap;rounded=0;" vertex="1" parent="1">
                    <mxGeometry x="55" y="670" width="100" height="30" as="geometry"/>
                </mxCell>
                <mxCell id="99" value="&lt;font style=&quot;color: rgb(255, 153, 51);&quot;&gt;Render&lt;/font&gt;" style="text;html=1;align=center;verticalAlign=middle;whiteSpace=wrap;rounded=0;" vertex="1" parent="1">
                    <mxGeometry x="120" y="710" width="60" height="30" as="geometry"/>
                </mxCell>
                <mxCell id="101" value="&lt;font style=&quot;color: rgb(102, 0, 102);&quot;&gt;Memory Collection&lt;/font&gt;" style="text;html=1;align=center;verticalAlign=middle;whiteSpace=wrap;rounded=0;" vertex="1" parent="1">
                    <mxGeometry x="120" y="970" width="120" height="30" as="geometry"/>
                </mxCell>
                <mxCell id="103" value="&lt;span style=&quot;color: rgb(0, 0, 0);&quot;&gt;3D Component&lt;/span&gt;" style="text;html=1;align=center;verticalAlign=middle;whiteSpace=wrap;rounded=0;" vertex="1" parent="1">
                    <mxGeometry x="680" y="670" width="100" height="30" as="geometry"/>
                </mxCell>
                <mxCell id="104" value="Geometry Batch" style="rounded=0;whiteSpace=wrap;html=1;" vertex="1" parent="1">
                    <mxGeometry x="1110" y="740" width="120" height="100" as="geometry"/>
                </mxCell>
                <mxCell id="105" value="Instance Batch" style="rounded=0;whiteSpace=wrap;html=1;" vertex="1" parent="1">
                    <mxGeometry x="1110" y="860" width="120" height="100" as="geometry"/>
                </mxCell>
                <mxCell id="107" value="&lt;font style=&quot;color: rgb(255, 153, 51);&quot;&gt;Render&lt;/font&gt;" style="text;html=1;align=center;verticalAlign=middle;whiteSpace=wrap;rounded=0;" vertex="1" parent="1">
                    <mxGeometry x="1110" y="700" width="60" height="30" as="geometry"/>
                </mxCell>
                <mxCell id="110" value="" style="endArrow=classic;html=1;exitX=0.263;exitY=-0.002;exitDx=0;exitDy=0;entryX=0.5;entryY=0;entryDx=0;entryDy=0;exitPerimeter=0;" edge="1" parent="1" source="106">
                    <mxGeometry width="50" height="50" relative="1" as="geometry">
                        <mxPoint x="1039.911" y="689.7199999999998" as="sourcePoint"/>
                        <mxPoint x="300" y="770" as="targetPoint"/>
                        <Array as="points">
                            <mxPoint x="1132" y="650"/>
                            <mxPoint x="950" y="650"/>
                            <mxPoint x="300" y="650"/>
                        </Array>
                    </mxGeometry>
                </mxCell>
                <mxCell id="111" value="Geometry Buffer" style="rounded=0;whiteSpace=wrap;html=1;" vertex="1" parent="1">
                    <mxGeometry x="920.5" y="740" width="120" height="60" as="geometry"/>
                </mxCell>
                <mxCell id="114" value="Transparency Buffer" style="rounded=0;whiteSpace=wrap;html=1;" vertex="1" parent="1">
                    <mxGeometry x="920.5" y="815" width="120" height="60" as="geometry"/>
                </mxCell>
                <mxCell id="115" value="Geometry Buffer" style="rounded=0;whiteSpace=wrap;html=1;" vertex="1" parent="1">
                    <mxGeometry x="920.5" y="890" width="120" height="60" as="geometry"/>
                </mxCell>
                <mxCell id="116" value="Geometry Buffer" style="rounded=0;whiteSpace=wrap;html=1;" vertex="1" parent="1">
                    <mxGeometry x="930.5" y="900" width="120" height="60" as="geometry"/>
                </mxCell>
                <mxCell id="117" value="Pixel Buffer" style="rounded=0;whiteSpace=wrap;html=1;" vertex="1" parent="1">
                    <mxGeometry x="940.5" y="910" width="120" height="60" as="geometry"/>
                </mxCell>
                <mxCell id="118" value="" style="endArrow=classic;html=1;" edge="1" parent="1" target="112">
                    <mxGeometry width="50" height="50" relative="1" as="geometry">
                        <mxPoint x="300" y="940" as="sourcePoint"/>
                        <mxPoint x="350" y="890" as="targetPoint"/>
                        <Array as="points">
                            <mxPoint x="300" y="1030"/>
                            <mxPoint x="980" y="1030"/>
                        </Array>
                    </mxGeometry>
                </mxCell>
                <mxCell id="119" value="" style="endArrow=classic;html=1;entryX=0.466;entryY=0.007;entryDx=0;entryDy=0;entryPerimeter=0;exitX=0.5;exitY=0;exitDx=0;exitDy=0;" edge="1" parent="1" source="112" target="96">
                    <mxGeometry width="50" height="50" relative="1" as="geometry">
                        <mxPoint x="920" y="690" as="sourcePoint"/>
                        <mxPoint x="970" y="650" as="targetPoint"/>
                        <Array as="points">
                            <mxPoint x="983" y="660"/>
                            <mxPoint x="336" y="660"/>
                        </Array>
                    </mxGeometry>
                </mxCell>
                <mxCell id="120" value="&lt;font color=&quot;#ff9933&quot;&gt;Deferred Pipeline&lt;/font&gt;" style="text;html=1;align=center;verticalAlign=middle;whiteSpace=wrap;rounded=0;" vertex="1" parent="1">
                    <mxGeometry x="912.5" y="700" width="120" height="30" as="geometry"/>
                </mxCell>
                <mxCell id="121" value="&lt;font color=&quot;#ff9933&quot;&gt;Post Processing&lt;/font&gt;" style="text;html=1;align=center;verticalAlign=middle;whiteSpace=wrap;rounded=0;" vertex="1" parent="1">
                    <mxGeometry x="704.75" y="700" width="120" height="30" as="geometry"/>
                </mxCell>
                <mxCell id="123" value="" style="endArrow=classic;html=1;entryX=0.5;entryY=1;entryDx=0;entryDy=0;" edge="1" parent="1" target="122">
                    <mxGeometry width="50" height="50" relative="1" as="geometry">
                        <mxPoint x="330" y="940" as="sourcePoint"/>
                        <mxPoint x="380" y="890" as="targetPoint"/>
                        <Array as="points">
                            <mxPoint x="330" y="1020"/>
                            <mxPoint x="780" y="1020"/>
                        </Array>
                    </mxGeometry>
                </mxCell>
                <mxCell id="124" value="Scene Projection" style="rounded=0;whiteSpace=wrap;html=1;" vertex="1" parent="1">
                    <mxGeometry x="707.38" y="740" width="120" height="60" as="geometry"/>
                </mxCell>
                <mxCell id="125" value="Scene Projection" style="rounded=0;whiteSpace=wrap;html=1;" vertex="1" parent="1">
                    <mxGeometry x="707.38" y="810" width="120" height="60" as="geometry"/>
                </mxCell>
                <mxCell id="126" value="Scene Projection" style="rounded=0;whiteSpace=wrap;html=1;" vertex="1" parent="1">
                    <mxGeometry x="717.38" y="820" width="120" height="60" as="geometry"/>
                </mxCell>
                <mxCell id="127" value="Post Processing Effect" style="rounded=0;whiteSpace=wrap;html=1;" vertex="1" parent="1">
                    <mxGeometry x="727.38" y="830" width="120" height="60" as="geometry"/>
                </mxCell>
                <mxCell id="128" value="" style="rounded=0;whiteSpace=wrap;html=1;strokeColor=#00CC00;" vertex="1" parent="1">
                    <mxGeometry x="30" y="1040" width="330" height="120" as="geometry"/>
                </mxCell>
                <mxCell id="134" value="" style="edgeStyle=none;html=1;" edge="1" parent="1" source="129">
                    <mxGeometry relative="1" as="geometry">
                        <mxPoint x="200" y="1090" as="targetPoint"/>
                    </mxGeometry>
                </mxCell>
                <mxCell id="129" value="GPU Memory Handler" style="rounded=0;whiteSpace=wrap;html=1;" vertex="1" parent="1">
                    <mxGeometry x="55" y="1060" width="120" height="60" as="geometry"/>
                </mxCell>
                <mxCell id="131" value="Texture Atlas" style="rounded=0;whiteSpace=wrap;html=1;" vertex="1" parent="1">
                    <mxGeometry x="200" y="1060" width="120" height="60" as="geometry"/>
                </mxCell>
                <mxCell id="132" value="Texture Atlas" style="rounded=0;whiteSpace=wrap;html=1;" vertex="1" parent="1">
                    <mxGeometry x="210" y="1070" width="120" height="60" as="geometry"/>
                </mxCell>
                <mxCell id="133" value="Texture Atlas" style="rounded=0;whiteSpace=wrap;html=1;" vertex="1" parent="1">
                    <mxGeometry x="220" y="1080" width="120" height="60" as="geometry"/>
                </mxCell>
                <mxCell id="135" value="" style="endArrow=classic;html=1;entryX=0.693;entryY=0;entryDx=0;entryDy=0;entryPerimeter=0;exitX=0.491;exitY=-0.007;exitDx=0;exitDy=0;exitPerimeter=0;" edge="1" parent="1" source="131" target="128">
                    <mxGeometry width="50" height="50" relative="1" as="geometry">
                        <mxPoint x="260" y="1060" as="sourcePoint"/>
                        <mxPoint x="310" y="1010" as="targetPoint"/>
                    </mxGeometry>
                </mxCell>
            </root>
        </mxGraphModel>
    </diagram>
</mxfile>